<svg  xmlns="http://www.w3.org/2000/svg" viewBox="0 0 242.12 299.55"><defs><style>.cls-1{fill:#fff;}.cls-2{fill:#e3e3e3;}.cls-3{fill:#b09548;}.cls-17,.cls-3,.cls-4{stroke:#95794e;stroke-width:0.98px;}.cls-17,.cls-23,.cls-3,.cls-4{stroke-miterlimit:10;}.cls-4{fill:#f6ddbf;}.cls-5{fill:#bda17c;}.cls-6{opacity:0.5;}.cls-7{fill:#fc7065;}.cls-8{fill:#e4c874;}.cls-9{fill:#fffffa;}.cls-10{fill:#564a3a;}.cls-11{fill:#493e30;}.cls-12{fill:#d8b88a;}.cls-13{opacity:0.15;}.cls-14{fill:#9a8c4f;}.cls-15{fill:#95794e;}.cls-16{fill:#393834;}.cls-17,.cls-23{fill:none;}.cls-18{fill:#fce2e1;}.cls-19{fill:#d5ab71;}.cls-20{fill:#9f8670;}.cls-21{fill:#ac8a5c;}.cls-22{fill:#ae8c5f;}.cls-23{stroke:#000;stroke-width:1.47px;}.cls-24{fill:#2e2e2e;}.cls-25{fill:#454545;}.cls-26{fill:#282828;}.cls-27{fill:#91909a;}.cls-28{fill:#313245;}.cls-29{fill:#8e8e8e;}</style></defs><title>anime-haikyuu-kenma-kozume-cute</title><path class="cls-1" d="M198.18,294.89c-.24,0-.48,0-.71,0a11.18,11.18,0,0,1-6.14-2.73,17,17,0,0,1-3.19-3.7,25.57,25.57,0,0,1-3.28-7.64,34,34,0,0,1-1-6.08,32,32,0,0,1-14.58,3.94,22.83,22.83,0,0,1-9.22-1.91c-.42-.18-.83-.37-1.23-.58l-.31-.15c-.77-.39-1.55-.81-2.3-1.25l-.5-.31-.11-.07c-.56-.35-1.09-.67-1.59-1-.2-.13-.38-.27-.57-.41l-.37-.27c-.39-.28-.78-.56-1.16-.86l-.56-.47-.37-.31c-.35-.29-.7-.58-1-.88l-.56-.55-.37-.36c-.31-.29-.61-.59-.91-.89s-.36-.39-.53-.59l-.36-.4c-.28-.31-.56-.62-.82-.94s-.34-.43-.51-.65l-.33-.42c-.25-.33-.51-.66-.75-1s-.32-.46-.47-.7l-.33-.48c-.22-.33-.44-.66-.65-1s-.29-.49-.43-.73l-.31-.54c-.2-.33-.39-.67-.58-1s-.27-.53-.4-.8l-.28-.57c-.17-.34-.34-.68-.5-1s-.24-.55-.35-.82l-50.27-7.35a4.88,4.88,0,0,1-4-3.68l-1.71-7.08a25,25,0,0,0-2.77.61c-1.23.35-2.55.8-3.83,1.23a45.49,45.49,0,0,1-11,2.69c-.51,0-1,.06-1.52.06-6.46,0-12-3.25-16.62-6.44A36.12,36.12,0,0,1,35.2,219.66c-3.05-8.32-1.3-18.72,7.93-22.47A16.42,16.42,0,0,1,49.45,196a36.65,36.65,0,0,1,8.94,1.46,41.8,41.8,0,0,0,4.81,1,18,18,0,0,0,2.09.13,20.43,20.43,0,0,0,5.07-.68,17.45,17.45,0,0,1-3.91-5.5c-.78-1.66-1.37-3.24-1.93-4.77l-.35-1c-1.47-4.06-2.79-8.42-2.61-13.23a20.39,20.39,0,0,1,1.74-7.59,17.16,17.16,0,0,1,2.63-4.16L58.48,131a4.92,4.92,0,0,1,1.9-5.12l7.31-5.24a4.86,4.86,0,0,1,2.85-.91,4.12,4.12,0,0,1,.7.05l31.68,4.63a22.71,22.71,0,0,1-1.86-6.3c-2.6-17.62-3.25-38.18-1.9-59.59A59.74,59.74,0,0,1,86.51,40.8c-.23-.49-.45-1-.68-1.52l-.23-.52A59.86,59.86,0,0,1,82,26.81l-.1-.51a4.9,4.9,0,0,1,2.34-5.15l.45-.26a70.18,70.18,0,0,1,35.13-9.71,64.25,64.25,0,0,1,9.33.68c9.46-5.9,20.77-6.46,30.73-6.5,2.1,0,4.32-.06,6.46-.12,2.55-.06,5.12-.13,7.68-.13,6.77,0,14.72.39,22.41,3.24a52.79,52.79,0,0,1,10.21,5.22A74,74,0,0,1,226.08,11c14.19,0,27.59,4.19,37.74,11.81l.4.3A4.9,4.9,0,0,1,266,28.25l-.13.48A96.73,96.73,0,0,1,231.44,80c-.18,1.62-.33,3.26-.47,4.87-.18,2.09-.37,4.23-.64,6.39,3.58,10.77,6.43,23-1.33,33.29a63.89,63.89,0,0,1-10.36,11,8.06,8.06,0,0,1-1.1,3.32c.24.46.59,1,.85,1.46s.64,1,.92,1.54c7,12.57,9.62,26.23,11.26,37.93.74,5.34,1.22,10.28,1.45,15a26.17,26.17,0,0,1,9.84,6.19,28.25,28.25,0,0,1,7.59,14,29.26,29.26,0,0,1-.95,15.85,40.35,40.35,0,0,1-7.71,12.82c-2.49,3-5.13,5.69-7.68,8.34l-1.39,1.43-9,9.32c-1.45,1.52-2.92,3.05-4.35,4.61l-.27.29a18.92,18.92,0,0,0-1.36,1.61c-.53.74-1,1.53-1.55,2.35a33.89,33.89,0,0,0-2.38,4.74c-.09.33-.19,1.06-.26,1.56l-.07.5c-.14,1-.32,2.24-.58,3.52a18.32,18.32,0,0,1-3.84,8.52,12.48,12.48,0,0,1-4.82,3.45,12.67,12.67,0,0,1-2.55.76,9.59,9.59,0,0,1-1.25.19A8.55,8.55,0,0,1,198.18,294.89Z" transform="translate(-28.94 -0.23)"/><path class="cls-1" d="M174,10c7.08,0,14.16.5,20.7,2.93a50.36,50.36,0,0,1,11.09,6,69.69,69.69,0,0,1,20.32-3.05c12.94,0,25.31,3.72,34.8,10.83l.39.3-.13.48a91.76,91.76,0,0,1-34.31,49.86c-.32,2.34-.53,4.76-.74,7.1s-.43,4.88-.76,7.3c3.5,10.33,6.32,21.13-.25,29.87a59.76,59.76,0,0,1-11.85,12,2,2,0,0,1,.54,1.46,4,4,0,0,1-.75,1.79,5.74,5.74,0,0,0-.32.53c-.86,1.61.35,3.57,1.52,5.48.28.46.56.91.81,1.36,6.61,11.87,9.11,25,10.69,36.23a154,154,0,0,1,1.54,18.08,21.47,21.47,0,0,1,11.13,5.87A23.68,23.68,0,0,1,244.68,216a24.6,24.6,0,0,1-.8,13.2,36.36,36.36,0,0,1-6.83,11.28c-2.82,3.34-5.86,6.41-8.85,9.53l-9,9.31c-1.5,1.55-3,3.11-4.44,4.69a27.15,27.15,0,0,0-2,2.38c-.62.86-1.19,1.75-1.74,2.65a37.52,37.52,0,0,0-2.81,5.64,18.32,18.32,0,0,0-.56,3c-.15,1.07-.3,2.16-.52,3.25a13.57,13.57,0,0,1-2.75,6.29,8.15,8.15,0,0,1-4.66,2.62,8.74,8.74,0,0,1-.87.14,6.12,6.12,0,0,1-.65,0h-.33a6.22,6.22,0,0,1-3.38-1.6,12.81,12.81,0,0,1-2.25-2.65,21.11,21.11,0,0,1-2.64-6.19,32.51,32.51,0,0,1-.4-13.21c0-.33.12-.66.18-1-.47.36-.93.7-1.39,1l0,0c-6.79,4.89-13,7.35-18.69,7.35a17.87,17.87,0,0,1-7.27-1.51c-.32-.14-.65-.29-1-.45l-.32-.17c-.7-.34-1.37-.71-2-1.1-.18-.1-.35-.22-.53-.33-.47-.29-.95-.58-1.4-.88l-.63-.47c-.4-.28-.8-.56-1.18-.86l-.65-.55c-.35-.29-.72-.59-1.06-.9s-.42-.41-.63-.62-.66-.61-1-.94-.41-.46-.62-.68-.59-.65-.87-1-.39-.5-.58-.75-.54-.68-.8-1-.37-.55-.55-.82-.49-.71-.72-1.08-.34-.59-.51-.88-.44-.75-.65-1.13-.31-.64-.47-.95-.39-.78-.57-1.18-.29-.67-.43-1-.35-.81-.51-1.23-.23-.65-.35-1L91,244.52l-2.71-11.23a36.57,36.57,0,0,0-7.87,1.21c-1.35.39-2.72.86-4.06,1.31a41.27,41.27,0,0,1-9.77,2.44c-.37,0-.75.05-1.12.05-5.09,0-9.82-2.79-13.83-5.58A31.18,31.18,0,0,1,39.79,218c-2.24-6.12-1.18-13.68,5.18-16.27a11.66,11.66,0,0,1,4.48-.83,32.11,32.11,0,0,1,7.74,1.32,45.42,45.42,0,0,0,5.39,1.14,20.65,20.65,0,0,0,2.71.17c4.95,0,9.78-1.65,14.79-4l-.79-3.27c-.22,0-.45,0-.67,0a7.15,7.15,0,0,1-4.1-1.22,11.44,11.44,0,0,1-3.66-4.68c-.83-1.77-1.45-3.56-2.12-5.34-1.29-3.57-2.44-7.35-2.3-11.33a15.86,15.86,0,0,1,1.32-5.77,11.66,11.66,0,0,1,3.57-4.58l-8.1-33.5,7.31-5.24,44.74,6.54c-4.71-3.26-8.46-7.44-9.39-13.76-2.65-17.92-3.23-39-1.7-60.88A54.37,54.37,0,0,1,90.94,38.74c-.22-.48-.44-1-.65-1.46-.06-.14-.13-.28-.18-.42a54.36,54.36,0,0,1-3.36-11l-.09-.51.45-.27a65.26,65.26,0,0,1,32.68-9,58.8,58.8,0,0,1,10.43.93c8.62-6.14,19.81-6.7,29.64-6.74,2.15,0,4.41-.07,6.58-.12,2.5-.07,5-.13,7.54-.13m22,114.17c.18-.62.34-1.25.5-1.87l-.5,1.87m-3.1,9.57.39-1.07c-.06.17-.12.33-.19.5l-.2.57M174,.23c-2.62,0-5.22.06-7.74.13h-.05c-2.12,0-4.32.11-6.37.11-7.38,0-20.5.09-31.72,6.32a69.81,69.81,0,0,0-8.31-.5,75,75,0,0,0-37.6,10.38l-.45.26a9.76,9.76,0,0,0-4.68,10.29l.1.51a63.52,63.52,0,0,0,4,12.94c0,.13.12.28.19.44l0,0c.26.61.5,1.17.77,1.73A64.38,64.38,0,0,0,94.15,60.4c-1.19,20.82-.5,40.8,2,58.06L72,114.92a9.55,9.55,0,0,0-1.41-.1,9.75,9.75,0,0,0-5.7,1.83l-7.3,5.24a9.78,9.78,0,0,0-3.81,10.24l6.91,28.53a22,22,0,0,0-1.8,3.26,25.3,25.3,0,0,0-2.16,9.35v.06c-.21,5.63,1.26,10.54,2.87,15,0,0,0,.07,0,.11l.34.93c.44,1.17.92,2.46,1.49,3.81l-1.82-.45a40.17,40.17,0,0,0-10.15-1.62,21.49,21.49,0,0,0-8.17,1.55c-10.5,4.28-15.09,16.61-10.67,28.68A40.91,40.91,0,0,0,46,240.75c4.91,3.41,11.55,7.32,19.4,7.32.64,0,1.29,0,1.93-.08a49.44,49.44,0,0,0,12.1-2.93l1.46-.49.54,2.24a9.79,9.79,0,0,0,8.09,7.38l47.67,7,.05.1q.22.5.48,1c.22.41.45.81.68,1.21l.14.24.12.21c.17.3.35.61.54.91s.5.78.76,1.17l.16.22.12.19c.19.3.39.59.59.87s.57.76.87,1.14l.16.21.12.16c.21.28.42.55.64.81s.64.74,1,1.1l.18.19.13.15.67.75c.4.42.77.77,1.07,1.05l.19.18.12.12q.35.36.72.69c.44.4.85.75,1.19,1l.19.16.11.1c.24.21.49.41.74.61.5.4,1,.73,1.34,1l.19.14.09.06.74.54c.64.43,1.23.79,1.75,1.11h0l0,0c.22.15.45.29.68.43.85.49,1.73,1,2.61,1.41l.29.15c.46.23,1,.46,1.45.68a27.78,27.78,0,0,0,11.18,2.32A33.11,33.11,0,0,0,180,281.66c0,.1.05.2.07.3l0,.06a30.29,30.29,0,0,0,3.9,9.05l0,.06a22.07,22.07,0,0,0,4.05,4.68l.06.05a15.58,15.58,0,0,0,8.75,3.86h.15c.36,0,.73,0,1.1,0a16,16,0,0,0,1.84-.11c.4-.05,1-.12,1.63-.26a18.34,18.34,0,0,0,3.48-1,17.49,17.49,0,0,0,6.6-4.75,23.19,23.19,0,0,0,4.94-10.69l0-.07c.27-1.35.46-2.65.62-3.86l.06-.44c0-.25.09-.58.12-.82a30.16,30.16,0,0,1,1.88-3.65c.43-.71.88-1.39,1.32-2,.19-.26.63-.75,1-1.18l.27-.29c1.39-1.52,2.86-3,4.27-4.52l9-9.28,1.41-1.46c2.61-2.7,5.3-5.49,7.89-8.56a45.16,45.16,0,0,0,8.6-14.38,34.26,34.26,0,0,0,1.11-18.48,33.19,33.19,0,0,0-8.93-16.46,30.8,30.8,0,0,0-8.58-6c-.27-3.93-.71-8-1.31-12.35-1.71-12.14-4.44-26.35-11.84-39.63-.18-.34-.37-.66-.56-1,0-.12.07-.24.1-.36a67.39,67.39,0,0,0,9.79-10.64c9.47-12.59,5.44-27.58,2.41-36.74.22-1.89.38-3.75.53-5.44l.24-2.73A101.65,101.65,0,0,0,270.58,30l.13-.49a9.78,9.78,0,0,0-3.56-10.38l-.4-.3c-11-8.24-25.43-12.79-40.66-12.79a79.16,79.16,0,0,0-18.68,2.25,55.44,55.44,0,0,0-9.32-4.54C189.63.63,180.76.23,174,.23Z" transform="translate(-28.94 -0.23)"/><path class="cls-2" d="M167.34,126.37c-3.3-4.37-8.22-7.31-13.39-9.11s-10.65-2.54-16.08-3.22c-4.37-.54-9.26-.92-12.72,1.79-2.84,2.21-4,6.13-3.51,9.69a18.73,18.73,0,0,0,4.77,9.51c7.62,8.73,20.06,12.53,31.51,10.77,3.82-.59,12.07-1.76,13-6.05C171.87,135.17,170.08,130,167.34,126.37Z" transform="translate(-28.94 -0.23)"/><path class="cls-3" d="M129.72,121.41S113.53,94.12,116.83,111s14,22.12,14,22.12c-3.32-3.58-1.74-9.48-1.74-9.48s3.85,8.78,11.95,10c0,0-4.68-5.9-4.76-9s1.48,1.3,1.48,1.3,1.36,6.8,10.37,8.83c0,0-3.95-5.36-2.87-7.89l-12.1-6.37Z" transform="translate(-28.94 -0.23)"/><path class="cls-4" d="M152.37,130.83s.51,7.34-5.28,8.66,1.09,3.78,1.09,3.78l43-6.22,1.1-21.06-9.6.7Z" transform="translate(-28.94 -0.23)"/><path class="cls-4" d="M117.63,114.43s13.87,16.75,36.05,16.39,34.6-13.46,34.6-13.46-.22-30.95,0-31.36-4.91-28.08-4.91-28.08L139,31.86,106.86,72.4l7.76,41.84Z" transform="translate(-28.94 -0.23)"/><path class="cls-5" d="M143,45s-7.27,18.38-30,34.53c0,0,5.1,16.46,2.71,22.13L112,88.62,108.8,73.35Z" transform="translate(-28.94 -0.23)"/><path class="cls-5" d="M143.21,44.39S152.46,58,180.9,66.83c0,0,2.33,11.55,5.53,16.12L185.31,68.5l-2.42-6.57Z" transform="translate(-28.94 -0.23)"/><g class="cls-6"><path class="cls-7" d="M185.67,95.65a15.07,15.07,0,0,0-5,1.36A7.3,7.3,0,0,1,185.67,95.65Z" transform="translate(-28.94 -0.23)"/><path class="cls-7" d="M185.2,95a14.36,14.36,0,0,0-4.67,1.28A6.79,6.79,0,0,1,185.2,95Z" transform="translate(-28.94 -0.23)"/><path class="cls-7" d="M185,94.33a14.58,14.58,0,0,0-4.58,1.26A6.64,6.64,0,0,1,185,94.33Z" transform="translate(-28.94 -0.23)"/><path class="cls-7" d="M184.42,93.56a13.88,13.88,0,0,0-4,1.12A5.6,5.6,0,0,1,184.42,93.56Z" transform="translate(-28.94 -0.23)"/><path class="cls-7" d="M121.15,96.87A14.91,14.91,0,0,0,116.34,95,7.32,7.32,0,0,1,121.15,96.87Z" transform="translate(-28.94 -0.23)"/><path class="cls-7" d="M121.15,96.07a14.79,14.79,0,0,0-4.52-1.73A6.8,6.8,0,0,1,121.15,96.07Z" transform="translate(-28.94 -0.23)"/><path class="cls-7" d="M121.34,95.38a14.69,14.69,0,0,0-4.44-1.7A6.62,6.62,0,0,1,121.34,95.38Z" transform="translate(-28.94 -0.23)"/><path class="cls-7" d="M121.37,94.45a13.77,13.77,0,0,0-3.91-1.5A5.62,5.62,0,0,1,121.37,94.45Z" transform="translate(-28.94 -0.23)"/></g><path class="cls-8" d="M198.49,104.31a26,26,0,0,0-2-6c-.38,7.82-2.27,22.92-8.87,33.62,8-4.42,11.2-13,12.11-23.2A17.62,17.62,0,0,1,198.49,104.31Z" transform="translate(-28.94 -0.23)"/><path d="M133.8,66.39c-.83-.09-1.6-.25-2.37-.38s-1.5-.39-2.28-.5a15.09,15.09,0,0,0-4.74,0l0-.1a13.06,13.06,0,0,1,4.83-.73,8.2,8.2,0,0,1,2.46.33,6.06,6.06,0,0,1,2.17,1.25Z" transform="translate(-28.94 -0.23)"/><path class="cls-9" d="M157.89,84.2A14.08,14.08,0,0,0,162,93.8a12.26,12.26,0,0,0,9.77,3.44,13.9,13.9,0,0,0,8.51-4.71A24.49,24.49,0,0,0,185,83.89a55.44,55.44,0,0,0-21.5-1.81A9.88,9.88,0,0,0,157.89,84.2Z" transform="translate(-28.94 -0.23)"/><circle class="cls-10" cx="141.17" cy="88.73" r="7.88"/><circle class="cls-11" cx="141.17" cy="89.26" r="3.49"/><path class="cls-12" d="M170.11,96.83a8.06,8.06,0,0,1-4.94-1.75c-.83-.66-3.31-3-2-4.12,1-.81,2.61-.14,3.14.12,1.26.62,1.76,2.13,4.45,1.9,1-.09,1.68-.77,2.65-1.89a3.5,3.5,0,0,1,1.73-1,1.48,1.48,0,0,1,1.9,1.08c.6,1.52-1.12,3.28-2.21,4.1A7.9,7.9,0,0,1,170.11,96.83Z" transform="translate(-28.94 -0.23)"/><circle class="cls-9" cx="145.66" cy="92.37" r="1.52"/><path class="cls-11" d="M166.62,96.07a8.73,8.73,0,0,1-4.26-4.47,7.51,7.51,0,0,1,.31-6.3,8.3,8.3,0,0,1,4.84-4,8.65,8.65,0,0,1,6.19.29,7.93,7.93,0,0,1,4.3,4.62,8.16,8.16,0,0,1-.35,6.39,7.76,7.76,0,0,1-4.89,4.06A8.72,8.72,0,0,1,166.62,96.07Zm0-.09a7.13,7.13,0,0,0,5.89.12,8.09,8.09,0,0,0,4.17-3.91,7.64,7.64,0,0,0,.41-5.64,7.82,7.82,0,0,0-3.67-4.43,7.16,7.16,0,0,0-5.85-.47,7.48,7.48,0,0,0-4.21,4,8.58,8.58,0,0,0-.46,5.74A7.18,7.18,0,0,0,166.66,96Z" transform="translate(-28.94 -0.23)"/><circle class="cls-9" cx="135.45" cy="84.26" r="2.24"/><path class="cls-13" d="M157.89,84.2c0,.36,0,.72.08,1.09,7-3.11,24.45-.35,24.45-.35s.86.63.58,3.68a31.29,31.29,0,0,0,2-4.73,55.44,55.44,0,0,0-21.5-1.81A9.88,9.88,0,0,0,157.89,84.2Z" transform="translate(-28.94 -0.23)"/><path d="M185,83.89c-2.32-.3-4.6-.65-6.89-.9s-4.56-.46-6.85-.52a68.29,68.29,0,0,0-6.86.08c-2.28.15-4.57.31-6.53,1.65a6.94,6.94,0,0,1,3-2,18.34,18.34,0,0,1,3.46-.83,37.56,37.56,0,0,1,7-.41A40.77,40.77,0,0,1,185,83.89Z" transform="translate(-28.94 -0.23)"/><path d="M178,94.64c1.06-1.28,2.07-2.47,3-3.75s1.8-2.6,2.82-3.91a11.45,11.45,0,0,1-2,4.49A9.76,9.76,0,0,1,178,94.64Z" transform="translate(-28.94 -0.23)"/><path class="cls-8" d="M196,97c-2.27-6-3.13-12.66-4.53-18.87-1.5-6.63-2.86-13.39-4.69-19.94-1.64-5.82-5.14-10.83-6.14-16.85a4.45,4.45,0,0,1,.26-2.51,5.41,5.41,0,0,1-.61-1.12c-1.48-3.81-5.13-6.61-7.84-9.57-3-3.31-5.28-7.6-9.54-9.5a4.86,4.86,0,0,1-.87-.51h-.09a4.86,4.86,0,0,1-3.59-1.52c-4.74,0-9.49.1-14.24.05a88.07,88.07,0,0,0-8.83.22c-4.21,4.5-9.4,7.56-14.09,11.45C117,37.29,109.28,46.58,105.76,55c-1.2,2.86-.65,7.48-.83,12-.34,8.73-.26,18.75,1.17,26.81a5.46,5.46,0,0,1,.64,2.85,4.87,4.87,0,0,1,1.05,2.93s0,0,0,0a8.28,8.28,0,0,1,1.46,4.06,7,7,0,0,1,0,.92c.83,2.31,1.8,4.78,2.91,7.29a8.33,8.33,0,0,1-.38,2.08c1,2.43.81,7,.35,9.78,2.57-1.8,3.9-.33,4.48-2.34,4.19,7.49,8.75,11.83,14.69,12.22-10.45-6.9-15.07-23.13-15.17-24.69-.22-3.2-.47-8.45-.61-13-.11-3.41-4.63-18-4.63-18s25.77-18.15,32.38-33.43a40,40,0,0,0,8,7c4.57,2.78,18.51,11.53,32.07,13.38a179.1,179.1,0,0,1,.77,18.09l-.33,15a123.26,123.26,0,0,0,4.39-19.33c-1.44,6.64-1,11.88-1,18,0,3.24.07,6.49,0,9.73a121.29,121.29,0,0,1-3.78,25.46c12.73-11.06,12.48-25.78,13-33.84Z" transform="translate(-28.94 -0.23)"/><path class="cls-14" d="M172.44,28.16c-3-3.31-5.28-7.6-9.54-9.5-.18-.08-.34-.17-.5-.26L161,18.06a2.61,2.61,0,0,1-.27-.06l-.88-.21q-2.42-.6-4.83-1.17c-3.63,0-7.26.11-10.89.07a85.51,85.51,0,0,0-8.85.23c-4.62,4.94-10.45,8.14-15.46,12.62-.53.47-1.06,1-1.58,1.45a4.89,4.89,0,0,1-.72,1.37,51.43,51.43,0,0,1-4.91,5.72,7.61,7.61,0,0,1,3.24,5.57c.87,10.42,13.54,17.52,14,18.38,4.83-5.79,9.55-10.75,13.41-17.64,1.88,2.21,5.64,3.39,7.52,5.6,0,0,18.59,4,20.29-5.88a10.4,10.4,0,0,1,4.82-7.24,6.74,6.74,0,0,0,2.43-2.52C176.54,32.11,174.28,30.17,172.44,28.16Z" transform="translate(-28.94 -0.23)"/><path class="cls-15" d="M181.63,60.17c-2.22-1.44-4.47-2.81-6.79-4a75.39,75.39,0,0,0-7.12-3.32,76.53,76.53,0,0,0-7.42-2.58c-2.52-.73-5.08-1.32-7.68-1.83a43.61,43.61,0,0,1,7.87,1.1,50.78,50.78,0,0,1,7.6,2.4,49.39,49.39,0,0,1,7.12,3.58A44.18,44.18,0,0,1,181.63,60.17Z" transform="translate(-28.94 -0.23)"/><path class="cls-16" d="M169.64,55.82A83.51,83.51,0,0,0,161.57,35c3.25,3,5.9,5.77,7.7,9.82-1.76-5.74-3.58-11.2-7-16.13A63,63,0,0,1,176.45,39a90.56,90.56,0,0,0-16.16-20.73,162.78,162.78,0,0,0-19.89-1c-3,.12-3.43.75-6.43,1a87.85,87.85,0,0,1-9,7.15,30.77,30.77,0,0,0-5.46,10c.61-1.91,3.72-4.39,5.45-6.09-1.12,1.4-1.7,3.86-2.35,5.36l-3.33,7.62q3-3.12,6-6.26A29,29,0,0,0,119,53.72a87.87,87.87,0,0,1,13.32-15.3q-3,4.74-6.05,9.5l8.68-9.05c-3,6.45-5.14,13-8.17,19.43l7.84-9c-1.58,4.84-3.41,8.06-5,12.9,4.63-6.55,9-10.9,13.63-17.85,2,2,4,4,6,6,1.6,1.6,6.21,3.16,7.8,4.76-.87-5.22-6.41-10.11-10.12-13.87,5.26,5.2,10.62,10.31,15,16.28a45.89,45.89,0,0,0-5.44-17.91A80.28,80.28,0,0,1,169.64,55.82Z" transform="translate(-28.94 -0.23)"/><path class="cls-17" d="M196,97c-2.27-6-3.13-12.66-4.53-18.87-1.5-6.63-2.86-13.39-4.69-19.94-1.64-5.82-5.14-10.83-6.14-16.85a4.45,4.45,0,0,1,.26-2.51,5.41,5.41,0,0,1-.61-1.12c-1.48-3.81-5.13-6.61-7.84-9.57-3-3.31-5.28-7.6-9.54-9.5a4.86,4.86,0,0,1-.87-.51h-.09a4.86,4.86,0,0,1-3.59-1.52c-4.74,0-9.49.1-14.24.05a88.07,88.07,0,0,0-8.83.22c-4.21,4.5-9.4,7.56-14.09,11.45-4.17,8.93-10.8,17.51-14.33,25.92-1.44,3.45-2.35,10.93-2.17,18.77.26,11.22,2.08,23,2,23.59a4.87,4.87,0,0,1,1.05,2.93s0,0,0,0a8.28,8.28,0,0,1,1.46,4.06,7,7,0,0,1,0,.92c.83,2.31,1.8,4.78,2.91,7.29a8.33,8.33,0,0,1-.38,2.08c1,2.43.81,7,.35,9.78,2.57-1.8,3.9-.33,4.48-2.34,4.19,7.49,8.75,11.83,14.69,12.22-11.86-9.12-15.07-23.13-15.17-24.69-.22-3.2-.47-8.45-.61-13-.11-3.41-4.63-18-4.63-18s25.77-18.15,32.38-33.43a40,40,0,0,0,8,7c4.57,2.78,18.51,11.53,32.07,13.38a179.1,179.1,0,0,1,.77,18.09l-.33,15c1.07-3.35,4.45-16.11,4.39-19.33-1.84,6.3-1,11.88-1,18,0,3.24.07,6.49,0,9.73a121.29,121.29,0,0,1-3.78,25.46c12.73-11.06,12.48-25.78,13-33.84Z" transform="translate(-28.94 -0.23)"/><path class="cls-1" d="M260.45,27.26c-15.32-11.5-36.82-13.16-54.8-7.56a50.14,50.14,0,0,0-11.22-6.08c-10.81-4-23.25-2.69-34.57-2.64-10.25,0-21.19.75-29.47,6.79-14.76-2.75-29.93.43-42.92,8A54.25,54.25,0,0,0,105,56.16c-1.39,19.62-1.28,41.16,1.66,61.11,1.37,9.26,9,13.79,16.94,17.72,5,7.57,5.4,17.57,2.4,26.12s-9.08,15.74-16.13,21.44-15.07,10-23,14.33C79.22,201,71,205.15,62.49,204.07c-5.82-.74-11.81-3.89-17.24-1.68-5.8,2.36-6.92,9.46-4.77,15.34A30.75,30.75,0,0,0,52,232.12c4.32,3,9.23,5.83,14.48,5.4,4.66-.38,9.18-2.42,13.67-3.72,4.8-1.39,11.26-1.57,16.23-1.08L119.19,235c7.8.77,15.84,1.74,22.89,5.16,2.6,23.42,16.41,29.54,19.33,31,13.9,7.06,29.82-7.94,34.42-12.27,6.41-6,8.13-10.51,14.54-16.54,5.86-5.52,12-12.32,13.86-20.15,3.25-13.63,2.71-27.79.77-41.67-1.76-12.56-4.44-24.91-10.6-36-1.34-2.39-3.62-5.12-2.34-7.54a5.8,5.8,0,0,0,1-2c.06-.76-.84-1.58-1.42-1.09a60,60,0,0,0,12.87-12.74c6.07-8.07,4.05-17.71.09-29.36.69-4.91.88-10,1.57-14.88A91.23,91.23,0,0,0,260.45,27.26ZM192.86,133.74l2.25-6.34,2.44-9.24s-1.23,7-9.82,14.22l5.9-15-8.31,10.44a60.71,60.71,0,0,1-48.27,10.46l-2.82-2.44c-1.38-.72-1.57-1.86-3.07-2.26a21.71,21.71,0,0,1-14.77-13.66c-1.29,1.54-2.67,2.12-4,3.66,1.22-7.09,0-14.38-1.8-21.34s-4.16-13.81-5.25-20.92a59.76,59.76,0,0,1,35-63.8l-4-.74c6.36,1.3,12.36.68,18.22,1.55S166.34,21.53,170.3,26c2.64,2.93,4.3,6.59,5.93,10.18L180.68,46c5,10.95,7.81,22.67,10.2,34.41.93,4.52,1.05,9.61,2.34,14,1.65,5.6,4.65,9.86,4.9,16C198.46,118.38,195.64,126.18,192.86,133.74Z" transform="translate(-28.94 -0.23)"/><path class="cls-2" d="M145.69,222.73,158,218.39l19.68-5,9.75-3.18,5.38-1.75s-16.32,11.47-20,15.91-4.68,5.86-4.68,5.86-6.41-6.13-19.38-4.25S145.69,222.73,145.69,222.73Z" transform="translate(-28.94 -0.23)"/><path class="cls-15" d="M114.59,54c-.51,2.83-1.07,5.64-1.56,8.46s-1,5.64-1.31,8.47-.66,5.67-.86,8.52q-.14,2.14-.18,4.29l-.05,2.14c0,.72,0,1.44,0,2.16a54,54,0,0,1-.53-8.62,75.06,75.06,0,0,1,.64-8.61c.39-2.86.89-5.7,1.55-8.5S113.69,56.7,114.59,54Z" transform="translate(-28.94 -0.23)"/><path class="cls-15" d="M123,64.59a22.68,22.68,0,0,1-10.69,11c2-1.73,3.84-3.4,5.6-5.23S121.3,66.57,123,64.59Z" transform="translate(-28.94 -0.23)"/><path class="cls-15" d="M122.69,56.24a59.45,59.45,0,0,1-4.45,6.81A58.47,58.47,0,0,1,113,69.28a68.08,68.08,0,0,1,9.68-13Z" transform="translate(-28.94 -0.23)"/><path class="cls-15" d="M106.86,65.06a28.24,28.24,0,0,1,10.2-20,47.17,47.17,0,0,0-10.2,20Z" transform="translate(-28.94 -0.23)"/><path class="cls-15" d="M115.76,109.63A38.38,38.38,0,0,1,113,97.44a38,38,0,0,0,3.63,11.81Z" transform="translate(-28.94 -0.23)"/><path class="cls-15" d="M182.88,65.66a25.46,25.46,0,0,0-3.33-12.16,26,26,0,0,1,4.31,12.1Z" transform="translate(-28.94 -0.23)"/><path d="M163,66.31a6.05,6.05,0,0,1,1.85-1.68,8.11,8.11,0,0,1,2.34-.85,13.2,13.2,0,0,1,4.88-.32v.1a15.18,15.18,0,0,0-4.64,1c-.73.27-1.4.68-2.12,1s-1.44.62-2.24.88Z" transform="translate(-28.94 -0.23)"/><path d="M162.14,80.38a9.45,9.45,0,0,1,3.4-1,9.33,9.33,0,0,1,3.56.21,17.86,17.86,0,0,1-7,.83Z" transform="translate(-28.94 -0.23)"/><path d="M145.18,99.84a1,1,0,0,1-.38.85.55.55,0,1,1,.38-.85Z" transform="translate(-28.94 -0.23)"/><path d="M142.6,113.54a9.62,9.62,0,0,1-.59,2.15l-.24-.6c.79.2,1.58.41,2.37.67a8.64,8.64,0,0,1,2.3,1.09,14,14,0,0,1-2.52-.23c-.41-.07-.82-.18-1.23-.28s-.81-.26-1.2-.43l-.48-.22.23-.38A9.49,9.49,0,0,1,142.6,113.54Z" transform="translate(-28.94 -0.23)"/><path d="M131.75,79.91a16.92,16.92,0,0,1-7.16-.63,11.1,11.1,0,0,1,7.16.63Z" transform="translate(-28.94 -0.23)"/><path class="cls-9" d="M137.32,83.46a11.86,11.86,0,0,1-3.46,8.09,10.32,10.32,0,0,1-8.24,2.9,11.7,11.7,0,0,1-7.16-4,20.66,20.66,0,0,1-4-7.28,46.85,46.85,0,0,1,18.12-1.52A8.41,8.41,0,0,1,137.32,83.46Z" transform="translate(-28.94 -0.23)"/><circle class="cls-10" cx="99.58" cy="87.69" r="6.64"/><circle class="cls-11" cx="99.58" cy="88.14" r="2.94"/><path class="cls-12" d="M128.51,94.56a6.79,6.79,0,0,1-4.16-1.48c-.69-.55-2.79-2.53-1.67-3.47.81-.69,2.2-.12,2.64.1,1.06.53,1.49,1.8,3.75,1.6.87-.08,1.42-.65,2.24-1.59a3,3,0,0,1,1.45-.86,1.26,1.26,0,0,1,1.6.91c.51,1.29-1,2.77-1.86,3.46A6.69,6.69,0,0,1,128.51,94.56Z" transform="translate(-28.94 -0.23)"/><circle class="cls-9" cx="103.36" cy="90.76" r="1.28"/><path class="cls-11" d="M125.57,93.91A7.3,7.3,0,0,1,122,90.15a6.26,6.26,0,0,1,.26-5.31,7.32,7.32,0,0,1,9.29-3.09,6.75,6.75,0,0,1,3.62,3.9,6.9,6.9,0,0,1-.29,5.38,6.6,6.6,0,0,1-4.12,3.43A7.39,7.39,0,0,1,125.57,93.91Zm0-.07a6,6,0,0,0,5,.1,6.8,6.8,0,0,0,3.51-3.29,6.41,6.41,0,0,0,.35-4.75,6.63,6.63,0,0,0-3.09-3.74,6.1,6.1,0,0,0-4.93-.4,6.28,6.28,0,0,0-3.55,3.38,7.19,7.19,0,0,0-.38,4.84A6,6,0,0,0,125.61,93.84Z" transform="translate(-28.94 -0.23)"/><circle class="cls-9" cx="94.76" cy="83.93" r="1.89"/><path class="cls-13" d="M137.32,83.46c0,.31,0,.61-.07.92-5.87-2.62-20.59-.3-20.59-.3s-.74.54-.49,3.11a25.09,25.09,0,0,1-1.71-4,46.85,46.85,0,0,1,18.12-1.52A8.41,8.41,0,0,1,137.32,83.46Z" transform="translate(-28.94 -0.23)"/><path d="M114.46,83.2a27.74,27.74,0,0,1,5.63-1.86,32.42,32.42,0,0,1,5.9-.77,28.23,28.23,0,0,1,6,.39,14.41,14.41,0,0,1,2.92.75,5.82,5.82,0,0,1,2.46,1.75c-1.7-1.06-3.6-1.13-5.52-1.23s-3.84-.1-5.75,0-3.84.22-5.76.39S116.44,83,114.46,83.2Z" transform="translate(-28.94 -0.23)"/><path d="M120.39,92.26a7.67,7.67,0,0,1-3.25-2.63,8.72,8.72,0,0,1-1.66-3.83c.92,1.08,1.64,2.19,2.44,3.25S119.53,91.13,120.39,92.26Z" transform="translate(-28.94 -0.23)"/><path d="M168.58,229.53a34.27,34.27,0,0,1,16-14.29,77.31,77.31,0,0,0-16,14.29Z" transform="translate(-28.94 -0.23)"/><path d="M170.77,230.78a15.13,15.13,0,0,1,3.95-1,6.52,6.52,0,0,1,2.12,0,2,2,0,0,1,1.64,1.37,2.37,2.37,0,0,0-1.72-.62,17.93,17.93,0,0,0-1.91.25A15.46,15.46,0,0,1,170.77,230.78Z" transform="translate(-28.94 -0.23)"/><path d="M202.8,157a24.34,24.34,0,0,1,6.27,4.8A25.87,25.87,0,0,1,215.91,176a27.73,27.73,0,0,1,.26,4,23.38,23.38,0,0,1-.4,3.93,31.86,31.86,0,0,0-.08-3.91,27.63,27.63,0,0,0-.53-3.85,30.68,30.68,0,0,0-2.45-7.31,31.14,31.14,0,0,0-4.2-6.46A33.43,33.43,0,0,0,202.8,157Z" transform="translate(-28.94 -0.23)"/><path d="M210.45,157.91a18.06,18.06,0,0,1,5.63,15.33,34.7,34.7,0,0,0-5.63-15.33Z" transform="translate(-28.94 -0.23)"/><polygon points="182.71 137.98 178.28 142.75 181.95 137.37 182.71 137.98"/><path d="M212.22,133.45a195,195,0,0,1-24.79,13.78c-4.25,2.05-8.48,4.15-12.82,6a71.7,71.7,0,0,1-13.43,4.45A71.45,71.45,0,0,0,174.51,153c4.3-1.94,8.49-4.11,12.71-6.24a193.77,193.77,0,0,0,24.44-14.14Z" transform="translate(-28.94 -0.23)"/><path d="M178,149c-2.29.77-4.61,1.4-6.95,2s-4.68,1.08-7,1.54-4.74.83-7.13,1.13a8.86,8.86,0,0,1-3.7,0,2,2,0,0,1-1.28-1.4,1.76,1.76,0,0,1,0-.94,1.11,1.11,0,0,1,.61-.68,1.25,1.25,0,0,0-.37,1.54,1.57,1.57,0,0,0,1.18,1,8.34,8.34,0,0,0,3.43-.3l7.07-1.34,7.07-1.31C173.3,149.77,175.66,149.33,178,149Z" transform="translate(-28.94 -0.23)"/><path class="cls-18" d="M47.24,214.08a11.62,11.62,0,0,0-1.57-3.25c-.53-.85-1.19-1.78-2.18-1.92-1.82-.25-2,1.65-1.89,3,.17,2.06,2,5.78,4.53,5.41C47.55,217.1,47.49,215.15,47.24,214.08Z" transform="translate(-28.94 -0.23)"/><path class="cls-18" d="M50.83,213.09a3.54,3.54,0,0,0,1.49,1.17,1.81,1.81,0,0,0,1.81-.24,2.6,2.6,0,0,0,.55-2.34A11.42,11.42,0,0,0,52.9,207c-.57-.85-1.45-1.84-2.58-1.76-.89.06-1,.89-1.17,1.64A8,8,0,0,0,50.83,213.09Z" transform="translate(-28.94 -0.23)"/><path class="cls-18" d="M42.86,219a8.87,8.87,0,0,0-2.61-4.36c-.27-.26-.7-.5-1-.27s-.2.63-.1.95c.28.89.58,1.76.88,2.64a13,13,0,0,0,1,2.52,1.17,1.17,0,0,0,1.41.59C43.16,220.7,43,219.63,42.86,219Z" transform="translate(-28.94 -0.23)"/><path class="cls-18" d="M46.9,221.47a7.94,7.94,0,0,1,6.25-2.23,15.81,15.81,0,0,1,6.47,2.1,22.13,22.13,0,0,1,6.59,5.21,14,14,0,0,1,3.29,7.64,3.94,3.94,0,0,1-.37,2.33c-.67,1.14-2.15,1.5-3.47,1.53-4.09.12-8-1.74-11.42-3.94a57.22,57.22,0,0,1-6.12-4.49c-1.7-1.43-3-2.5-2.72-4.93A5.74,5.74,0,0,1,46.9,221.47Z" transform="translate(-28.94 -0.23)"/><path class="cls-19" d="M225,213.7a11.58,11.58,0,0,1-5.53-5.9,20,20,0,0,1-1.52-8.06,22.73,22.73,0,0,1,1.52-8.57,14.85,14.85,0,0,1,5.34-6.77l-.21.35c.25,4.46,1.48,8.63,1.73,13.09A67.17,67.17,0,0,1,225,213.7Z" transform="translate(-28.94 -0.23)"/><path class="cls-20" d="M218.65,157.42a55.31,55.31,0,0,0,7.08,40.9,106.11,106.11,0,0,0-.81-15,200.28,200.28,0,0,0-4.69-22.06A29.29,29.29,0,0,0,218.65,157.42Z" transform="translate(-28.94 -0.23)"/><path class="cls-19" d="M205.05,20.17c18-5.61,39.48-3.94,54.8,7.55a91.26,91.26,0,0,1-34.29,49.65,3.3,3.3,0,0,1-2,4.48,5.31,5.31,0,0,1-5.11-1.68,14.27,14.27,0,0,1-2.74-4.89,19.31,19.31,0,0,0-2.51-5c-1.51-1.91-3.73-3.11-5.73-4.51-4.27-3-7.69-7-11-10.92a22.75,22.75,0,0,1-4.57-6.93c-1.62-4.61-.13-9.66,1.35-14.31,1-3,2-6.09,3.88-8.6S201.91,19.79,205.05,20.17Z" transform="translate(-28.94 -0.23)"/><path class="cls-18" d="M216.32,39a53.72,53.72,0,0,0,10.57,29.3,71.63,71.63,0,0,0,30-39.94A82.37,82.37,0,0,0,216.32,39Z" transform="translate(-28.94 -0.23)"/><path class="cls-21" d="M256.89,28.39c-3.53.21-7,.54-10.52,1.07A90.44,90.44,0,0,0,236,31.56a86.24,86.24,0,0,0-10,3.19A102.61,102.61,0,0,0,216.32,39c.75-.47,1.5-.94,2.26-1.39l2.32-1.3,2.38-1.19,2.43-1.1a75.76,75.76,0,0,1,10.08-3.44,79.41,79.41,0,0,1,10.48-1.9A67.33,67.33,0,0,1,256.89,28.39Z" transform="translate(-28.94 -0.23)"/><path class="cls-22" d="M205.05,20.17c18-5.61,39.48-3.94,54.8,7.55a88.45,88.45,0,0,0-27.4-7.15C222.81,19.59,204.78,20.25,205.05,20.17Z" transform="translate(-28.94 -0.23)"/><path class="cls-22" d="M104.35,56.63A54.21,54.21,0,0,1,86.88,26.22c13-7.56,28.15-10.74,42.92-8C129.8,18.24,109.39,28.84,104.35,56.63Z" transform="translate(-28.94 -0.23)"/><path class="cls-19" d="M129.8,18.24c-14.77-2.76-29.94.42-42.92,8,0,0,29.79-.27,35.24-2.31l3.57-3Z" transform="translate(-28.94 -0.23)"/><path d="M225.11,69a88.27,88.27,0,0,1,.08,11.15,108.81,108.81,0,0,1-1.2,11.1,109.18,109.18,0,0,1-2.41,10.9,88,88,0,0,1-3.64,10.54c1.06-3.56,2.06-7.13,2.91-10.73s1.62-7.21,2.18-10.87,1.07-7.31,1.41-11S225,72.68,225.11,69Z" transform="translate(-28.94 -0.23)"/><path d="M136.39,16.74a58,58,0,0,0,9.31.81,77.53,77.53,0,0,1,9.37.58,30.63,30.63,0,0,1,9,2.76,21.53,21.53,0,0,1,7.39,5.87A38.57,38.57,0,0,1,176.14,35L180,43.47A120.14,120.14,0,0,1,186.7,61c1.77,6,3.15,12.12,4.4,18.25.68,3.07,1,6.21,1.38,9.28a35.84,35.84,0,0,0,2.23,9,65.1,65.1,0,0,1,3.15,8.86,21.31,21.31,0,0,1,.54,4.7,32.2,32.2,0,0,1-.28,4.71c-.82,6.24-3,12.15-5.27,18,2-5.89,4.15-11.83,4.8-18a26.85,26.85,0,0,0-.39-9.21A65.14,65.14,0,0,0,194,97.79a36.42,36.42,0,0,1-1.51-4.49,46.15,46.15,0,0,1-.86-4.64c-.44-3.11-.73-6.2-1.41-9.23-1.28-6.1-2.69-12.17-4.46-18.14a119.94,119.94,0,0,0-6.55-17.46l-3.85-8.53a39.84,39.84,0,0,0-4.51-8.08,20.72,20.72,0,0,0-7.08-5.78A30.36,30.36,0,0,0,155,18.6C148.87,17.55,142.51,18.15,136.39,16.74Z" transform="translate(-28.94 -0.23)"/><path d="M185.31,127.78a51.8,51.8,0,0,1-10.81,6.74,56.85,56.85,0,0,1-24.84,5.39l-3.19-.14-3.18-.3-3.15-.52c-1-.23-2.08-.46-3.11-.71a67.87,67.87,0,0,0,12.63.92,67,67,0,0,0,24.54-5.32A67.65,67.65,0,0,0,185.31,127.78Z" transform="translate(-28.94 -0.23)"/><path d="M140.4,17.48a62.37,62.37,0,0,0-19.83,14.73,59.12,59.12,0,0,0-12.34,21.26,60.4,60.4,0,0,0-2.89,24.43,73.74,73.74,0,0,0,2.19,12.21c1,4,2.16,8,3.1,12.09l-3.56-12A74.11,74.11,0,0,1,104.59,78a57.77,57.77,0,0,1,.06-12.54,59.85,59.85,0,0,1,2.65-12.26A58.63,58.63,0,0,1,120,31.71a61,61,0,0,1,9.43-8.23A59.15,59.15,0,0,1,140.4,17.48Z" transform="translate(-28.94 -0.23)"/><path class="cls-15" d="M123.91,126.09c2.27,2.25,4.53,4.52,6.75,6.82l.57.59-.8-.11a13.87,13.87,0,0,1-4.82-1.74,19.18,19.18,0,0,1-4-3.13,25.34,25.34,0,0,1-3.19-4c-.48-.71-.87-1.46-1.31-2.19l-1.13-2.28.84.09a17.57,17.57,0,0,1-1.9,2,16,16,0,0,1-2.2,1.71l-1.05.67.38-1.22a19.55,19.55,0,0,0,.63-5.67,49.79,49.79,0,0,0-.38-5.84c-.09-1-.27-1.94-.4-2.91l-.5-2.9-.58-2.89-.65-2.88.85,2.83.76,2.86c.48,1.91.86,3.85,1.16,5.8a43.31,43.31,0,0,1,.58,5.92,20.1,20.1,0,0,1-.62,6l-.67-.56a13.84,13.84,0,0,0,2-1.63,16.85,16.85,0,0,0,1.76-1.93l.49-.63.34.73,1.08,2.22c.41.71.79,1.45,1.24,2.14a24.74,24.74,0,0,0,3,3.87A20.49,20.49,0,0,0,126,131a13.23,13.23,0,0,0,4.5,1.83l-.24.47Q127,129.73,123.91,126.09Z" transform="translate(-28.94 -0.23)"/><path d="M121.68,128.14a39,39,0,0,0,6.3,3.75,31.73,31.73,0,0,0,3.41,1.33,3.45,3.45,0,0,1,1.58,1.24,6.39,6.39,0,0,0,1.25,1.35,4.71,4.71,0,0,1-1.6-1,3.21,3.21,0,0,0-1.46-.84,16.66,16.66,0,0,1-3.58-1.17A15.53,15.53,0,0,1,121.68,128.14Z" transform="translate(-28.94 -0.23)"/><path class="cls-8" d="M186.39,119s-1.91,8.5-3.38,12.63c0,0,8.55-7.46,10.68-15.65,0,0-2.09,10.27-6,16.39,0,0,5.78-4.86,8.4-10.37a13.2,13.2,0,0,0,1.14-3.51" transform="translate(-28.94 -0.23)"/><path class="cls-15" d="M185.89,119c-.34,2.19-.75,4.36-1.19,6.52a56,56,0,0,1-1.65,6.45l-.51-.34a59.07,59.07,0,0,0,6.21-7.37,34.32,34.32,0,0,0,4.49-8.45l.91.28c-.75,2.81-1.5,5.64-2.46,8.42a48.7,48.7,0,0,1-3.62,8l-.59-.48a41,41,0,0,0,5.9-6.09,18.8,18.8,0,0,0,3.89-7.49,13.33,13.33,0,0,1-1.28,4.09,24.74,24.74,0,0,1-2.22,3.69,41.74,41.74,0,0,1-5.79,6.39l-1.58,1.42,1-1.9a53.8,53.8,0,0,0,3.45-8c.93-2.73,1.6-5.57,2.39-8.38l.92.28a35.46,35.46,0,0,1-4.7,8.64,51.27,51.27,0,0,1-6.48,7.33l-1,.91.46-1.24c.76-2.05,1.3-4.19,1.87-6.32S185.38,121.17,185.89,119Z" transform="translate(-28.94 -0.23)"/><path class="cls-23" d="M260.45,27.26c-15.32-11.5-36.82-13.16-54.8-7.56a50.14,50.14,0,0,0-11.22-6.08c-10.81-4-23.25-2.69-34.57-2.64-10.25,0-21.19.75-29.47,6.79-14.76-2.75-29.93.43-42.92,8A54.25,54.25,0,0,0,105,56.16c-1.39,19.62-1.28,41.16,1.66,61.11,1.37,9.26,9,13.79,16.94,17.72,5,7.57,5.4,17.57,2.4,26.12s-9.08,15.74-16.13,21.44-15.07,10-23,14.33C79.22,201,71,205.15,62.49,204.07c-5.82-.74-11.81-3.89-17.24-1.68-5.8,2.36-6.92,9.46-4.77,15.34A30.75,30.75,0,0,0,52,232.12c4.32,3,9.23,5.83,14.48,5.4,4.66-.38,9.18-2.42,13.67-3.72,4.8-1.39,11.26-1.57,16.23-1.08L119.19,235c7.8.77,15.84,1.74,22.89,5.16,2.6,23.42,16.41,29.54,19.33,31,13.9,7.06,29.82-7.94,34.42-12.27,6.41-6,8.13-10.51,14.54-16.54,5.86-5.52,12-12.32,13.86-20.15,3.25-13.63,2.71-27.79.77-41.67-1.76-12.56-4.44-24.91-10.6-36-1.34-2.39-3.62-5.12-2.34-7.54a5.8,5.8,0,0,0,1-2c.06-.76-.84-1.58-1.42-1.09a60,60,0,0,0,12.87-12.74c6.07-8.07,4.05-17.71.09-29.36.69-4.91.88-10,1.57-14.88A91.23,91.23,0,0,0,260.45,27.26Z" transform="translate(-28.94 -0.23)"/><path class="cls-1" d="M226,199.3c13.28,2.2,21.32,15.92,17.41,28.72-1.9,6.23-6.32,11.33-10.77,16.08-4.9,5.25-18.72,19.15-20.38,21.44a41.2,41.2,0,0,0-4.85,8.67c-1.28,3.15-.08,14.2-9,14.89-4.33.34-10.93-9.08-8.25-23.55,1.19-6.42,5.2-12,9.22-17.13,3.16-4,27.77-28.22,30.54-31.92" transform="translate(-28.94 -0.23)"/><path class="cls-2" d="M225.94,199.17c.72,8.14-.8,16.21-2.91,24.11,2.5-1.29,5.23-4.51,6.89-6.78s2.48-3.76,5.05-4.9c2.15-1,7.25-.27,7.25-.27s-1.73-2.36-2.09-3a16.2,16.2,0,0,0-2.12-2.83,16.49,16.49,0,0,0-5.68-3.94C231.1,201.07,227.05,199.55,225.94,199.17Z" transform="translate(-28.94 -0.23)"/><path d="M229.92,216.5a36.4,36.4,0,0,1-3.92,5.21c-1.42,1.64-2.9,3.21-4.41,4.75l-9.06,9.27c-3,3.09-6,6.17-9,9.3-.73.78-1.48,1.56-2.19,2.35s-1.36,1.57-2,2.44c-1.31,1.71-2.58,3.43-3.73,5.21a28.94,28.94,0,0,0-4.74,11.58,30.76,30.76,0,0,0,.42,12.5,19.48,19.48,0,0,0,2.43,5.67,10.62,10.62,0,0,0,1.94,2.26,4.5,4.5,0,0,0,2.36,1.17,6.55,6.55,0,0,0,1.37-.14,6.4,6.4,0,0,0,1.37-.42A6,6,0,0,0,203,286a12,12,0,0,0,2.35-5.47c.2-1,.36-2.07.5-3.14a19.76,19.76,0,0,1,.66-3.35,39.27,39.27,0,0,1,3-5.95c.58-.94,1.18-1.86,1.82-2.76a27.41,27.41,0,0,1,2.17-2.55c1.47-1.6,3-3.16,4.46-4.72l9-9.3c3-3.11,6-6.18,8.79-9.43a35,35,0,0,0,6.59-10.71,22.89,22.89,0,0,0,.83-12.33,22.09,22.09,0,0,0-5.79-10.91,20.07,20.07,0,0,0-10.92-5.67h0l.79-.7a100.6,100.6,0,0,1-.57,13,57.1,57.1,0,0,1-1.08,6.45,22,22,0,0,1-2.35,6.22l-1.17-.72a20.77,20.77,0,0,0,2.19-5.82,54.84,54.84,0,0,0,1.05-6.28,99.53,99.53,0,0,0,.56-12.8v-.85l.81.16h0a21.5,21.5,0,0,1,11.74,6A23.68,23.68,0,0,1,244.68,216a24.61,24.61,0,0,1-.8,13.2,36.53,36.53,0,0,1-6.82,11.28c-2.83,3.34-5.87,6.41-8.86,9.53l-9,9.31c-1.5,1.55-3,3.11-4.44,4.69a27.15,27.15,0,0,0-2,2.38c-.62.86-1.19,1.75-1.74,2.65a37.52,37.52,0,0,0-2.81,5.64,18.32,18.32,0,0,0-.56,3c-.15,1.07-.3,2.16-.52,3.25a13.57,13.57,0,0,1-2.75,6.29,8.15,8.15,0,0,1-4.66,2.62,8.74,8.74,0,0,1-.87.14,6.1,6.1,0,0,1-1,0,6.22,6.22,0,0,1-3.38-1.6,12.56,12.56,0,0,1-2.25-2.65,21.11,21.11,0,0,1-2.64-6.19,32.51,32.51,0,0,1-.4-13.21,30.71,30.71,0,0,1,5-12.19c1.2-1.84,2.5-3.59,3.83-5.31.65-.83,1.39-1.74,2.12-2.52s1.49-1.59,2.23-2.38c3-3.13,6-6.2,9.06-9.28l9.09-9.22q2.25-2.33,4.59-4.56C226.7,219.39,228.3,218,229.92,216.5Z" transform="translate(-28.94 -0.23)"/><polygon class="cls-24" points="41.78 125.13 111.64 135.34 104.98 140.12 35.12 129.91 41.78 125.13"/><polygon class="cls-25" points="132.49 253.84 62.63 243.64 35.12 129.91 104.98 140.12 132.49 253.84"/><polygon class="cls-24" points="132.49 253.84 139.15 249.06 111.64 135.34 104.98 140.12 132.49 253.84"/><ellipse class="cls-26" cx="41.93" cy="136.3" rx="3.4" ry="3.13"/><path d="M74.28,136.53a3.16,3.16,0,0,1-1,2.31,3.51,3.51,0,0,1-5.87-2.31,3,3,0,0,1,1-2.35,3.59,3.59,0,0,1,2.43-.91,3.5,3.5,0,0,1,2.4.94A3.18,3.18,0,0,1,74.28,136.53Zm0,0a2.88,2.88,0,0,0-1.09-2.2,3.67,3.67,0,0,0-2.3-.81,3.51,3.51,0,0,0-2.28.84,2.92,2.92,0,0,0-1.06,2.17,2.89,2.89,0,0,0,1,2.22,3.49,3.49,0,0,0,2.33.81,3.79,3.79,0,0,0,2.3-.83A2.88,2.88,0,0,0,74.26,136.53Z" transform="translate(-28.94 -0.23)"/><ellipse class="cls-27" cx="50.69" cy="137.28" rx="1.45" ry="1.33"/><path d="M81.08,137.5a1.4,1.4,0,0,1-1.46,1.44,1.6,1.6,0,0,1-1.51-1.44,1.49,1.49,0,0,1,3,0Zm0,0a1.12,1.12,0,0,0-.49-.9,1.62,1.62,0,0,0-.95-.3,1.36,1.36,0,0,0-1.38,1.2,1.11,1.11,0,0,0,.41.93,1.4,1.4,0,0,0,1,.31,1.82,1.82,0,0,0,1-.33A1.14,1.14,0,0,0,81.06,137.5Z" transform="translate(-28.94 -0.23)"/><ellipse class="cls-26" cx="47.28" cy="136.92" rx="0.73" ry="0.67"/><path d="M77,137.14a.72.72,0,0,1-.74.77.9.9,0,0,1-.79-.77.77.77,0,1,1,1.53,0Zm0,0c0-.4-.44-.54-.72-.54a.66.66,0,0,0-.66.54.55.55,0,0,0,.66.57C76.51,137.68,76.92,137.54,76.94,137.14Z" transform="translate(-28.94 -0.23)"/><ellipse class="cls-28" cx="41.93" cy="136.3" rx="1.17" ry="1.08"/><path class="cls-26" d="M103.9,169.27a3.24,3.24,0,0,0,2.25-2.46c.11-.6.08-1.3.53-1.73a3.79,3.79,0,0,0-2.93,1.29,3.57,3.57,0,0,0-.78,3A5.75,5.75,0,0,0,103.9,169.27Z" transform="translate(-28.94 -0.23)"/><path class="cls-26" d="M110.41,171.73a2.76,2.76,0,0,0-1.46,2.43,4.46,4.46,0,0,0,1,2.76,13.42,13.42,0,0,0,2.18,2,8.08,8.08,0,0,1-1,2.63,2.73,2.73,0,0,1-2.34,1.32c-1.11-.08-2-1.06-3.06-1.26a6.6,6.6,0,0,0-2.2.22,2.58,2.58,0,0,1-2.2-.5,9.86,9.86,0,0,1-1.69-1.84,19.07,19.07,0,0,1-2.24-4.55,9.59,9.59,0,0,1-.68-2.78,3.59,3.59,0,0,1,.88-2.66,3.23,3.23,0,0,1,2.79-.87A4.84,4.84,0,0,1,103,170c.28.27.72.16,1.09,0A5.74,5.74,0,0,1,110.41,171.73Z" transform="translate(-28.94 -0.23)"/><polygon class="cls-29" points="73.84 181.57 79.35 170.02 80.23 170.44 74.94 181.54 73.84 181.57"/><polygon class="cls-29" points="73.19 181.43 72.68 181.17 71.56 180.29 76.72 169.5 77.8 169.58 78.72 169.84 73.19 181.43"/><polygon class="cls-23" points="111.64 135.34 41.78 125.13 35.12 129.91 62.63 243.64 132.49 253.84 139.15 249.06 111.64 135.34"/><path class="cls-23" d="M140.58,135.57" transform="translate(-28.94 -0.23)"/><path d="M64.07,130.09q8.76,1.09,17.5,2.28c5.83.78,11.65,1.63,17.48,2.45s11.64,1.71,17.45,2.64,11.62,1.86,17.44,2.72l.11,0,0,.11c1.1,4.75,2.31,9.47,3.48,14.2l3.55,14.19q3.58,14.18,7.06,28.39c2.28,9.48,4.6,18.95,6.78,28.45s4.44,19,6.52,28.52l-.09,0c-2.5-9.43-4.84-18.89-7.23-28.34s-4.67-18.94-7-28.41-4.51-19-6.7-28.48l-3.33-14.24c-1.13-4.74-2.2-9.5-3.4-14.22l.14.12c-5.82-.84-11.66-1.59-17.49-2.38s-11.65-1.61-17.47-2.46S87.29,133.94,81.48,133s-11.62-1.85-17.43-2.82Z" transform="translate(-28.94 -0.23)"/><path d="M140.58,135.57a17.74,17.74,0,0,1-6.66,4.78,15.12,15.12,0,0,1,3-2.79A15.49,15.49,0,0,1,140.58,135.57Z" transform="translate(-28.94 -0.23)"/><path d="M103.9,169.26a2.83,2.83,0,0,0,1.13-.67,3.87,3.87,0,0,0,.76-1,4.11,4.11,0,0,0,.37-1.25,2.17,2.17,0,0,1,.49-1.25l0,.07a3.73,3.73,0,0,0-2.79,1.3,3.54,3.54,0,0,0-.74,1.36,4,4,0,0,0-.13,1.57l0,0A4.79,4.79,0,0,0,103.9,169.26Zm0,0a7.24,7.24,0,0,1-.92.12h0v0a3.35,3.35,0,0,1,.76-3.12,3.82,3.82,0,0,1,3-1.21h.09l-.07.06a1.76,1.76,0,0,0-.41,1.21,3.23,3.23,0,0,1-.31,1.32A3.28,3.28,0,0,1,103.9,169.28Z" transform="translate(-28.94 -0.23)"/><path d="M110.42,171.73a2.6,2.6,0,0,0-1.31,1.71,3.45,3.45,0,0,0,.17,2.15,5.3,5.3,0,0,0,1.2,1.82c.52.52,1.13,1,1.7,1.43l0,0v.06a8.34,8.34,0,0,1-.85,2.44,3.1,3.1,0,0,1-2,1.54,3.66,3.66,0,0,1-2.43-.77,3.9,3.9,0,0,0-1.16-.48,3.56,3.56,0,0,0-1.26,0,4.4,4.4,0,0,1-2.54,0,3.42,3.42,0,0,1-1-.75,9.79,9.79,0,0,1-.88-.94,16.67,16.67,0,0,1-2.47-4.49,15.57,15.57,0,0,1-.79-2.45,4.86,4.86,0,0,1,.11-2.59,3,3,0,0,1,1.81-1.83,3.72,3.72,0,0,1,2.59,0,4.54,4.54,0,0,1,1.14.63,4,4,0,0,1,.51.41c.17.15.28.31.47.32a3.68,3.68,0,0,0,1.21-.23,6.92,6.92,0,0,1,1.28-.18,5.31,5.31,0,0,1,2.51.5A6.76,6.76,0,0,1,110.42,171.73Zm0,0a6.91,6.91,0,0,0-2-1.46,5.1,5.1,0,0,0-2.47-.44,5.83,5.83,0,0,0-1.24.2,3.8,3.8,0,0,1-1.29.25c-.26,0-.43-.24-.57-.36a4.78,4.78,0,0,0-.5-.39,4.63,4.63,0,0,0-1.1-.58,3.48,3.48,0,0,0-2.42,0,2.74,2.74,0,0,0-1.67,1.69c-.58,1.61.08,3.32.66,4.89a16,16,0,0,0,2.37,4.48,8.48,8.48,0,0,0,.86.94,3.37,3.37,0,0,0,1,.75,4.16,4.16,0,0,0,2.49,0,4,4,0,0,1,1.29-.05,3.92,3.92,0,0,1,1.2.48,3.53,3.53,0,0,0,2.34.72,2.89,2.89,0,0,0,1.9-1.48,9.71,9.71,0,0,0,.82-2.38l0,.1c-.56-.49-1.17-.93-1.69-1.47a5.49,5.49,0,0,1-1.22-1.89,3.55,3.55,0,0,1-.13-2.23A2.65,2.65,0,0,1,110.39,171.73Z" transform="translate(-28.94 -0.23)"/><path class="cls-1" d="M214.5,189.55c-3.95,7.48-10.8,13.11-18.3,17s-15.64,5.48-23.77,7.83c-7,2-15.32,4.18-22.26,6.18-5.58,1.61-7.67,5.78-13.25,7.39-2.48.71-7.27-.53-9.72-1.36a8.07,8.07,0,0,1-4.84-5.33,15.51,15.51,0,0,1-.22-7.39,30.08,30.08,0,0,1,4.88-12c5.27-7.66,13.7-12.43,21.84-16.94l29.6-16.4c5.49-3,9.93-6.6,16.11-7.61" transform="translate(-28.94 -0.23)"/><path d="M214.5,189.55a32.74,32.74,0,0,1-7.68,10.39,47.74,47.74,0,0,1-10.72,7.37c-7.8,4-16.4,5.63-24.59,8.06l-12.41,3.49-6.21,1.75c-1,.3-2.11.56-3.07.89a14.47,14.47,0,0,0-2.77,1.28c-1.78,1.05-3.38,2.47-5.22,3.71a17.65,17.65,0,0,1-3,1.62,14.39,14.39,0,0,1-1.59.59,7,7,0,0,1-1.79.28,23.52,23.52,0,0,1-6.6-1c-.53-.14-1.06-.3-1.59-.46a7.91,7.91,0,0,1-4.27-3.08,11.4,11.4,0,0,1-2-6.53,24.73,24.73,0,0,1,.87-6.61,31,31,0,0,1,5.9-11.74,44.46,44.46,0,0,1,9.75-8.73c3.59-2.45,7.38-4.56,11.14-6.64l22.59-12.47c3.75-2.11,7.57-4,11.27-6.23a52.41,52.41,0,0,1,5.79-2.94,21.92,21.92,0,0,1,6.28-1.61c-4.23,1-7.87,3.24-11.47,5.56s-7.42,4.41-11.16,6.51l-22.55,12.53c-3.76,2.09-7.49,4.18-11,6.59a42.68,42.68,0,0,0-9.38,8.44,29.43,29.43,0,0,0-5.57,11.15,23.05,23.05,0,0,0-.79,6.14,9.7,9.7,0,0,0,1.74,5.59,7,7,0,0,0,2.1,1.92,6.4,6.4,0,0,0,1.33.56c.5.16,1,.32,1.51.45a22.11,22.11,0,0,0,6.1,1,5.69,5.69,0,0,0,1.39-.2c.48-.16,1-.31,1.43-.52a16.42,16.42,0,0,0,2.7-1.46c1.73-1.15,3.38-2.59,5.31-3.73a16.16,16.16,0,0,1,3.08-1.4c1.08-.35,2.08-.59,3.13-.89l6.22-1.71L171.13,214c8.28-2.41,16.81-4,24.41-7.83S210,196.92,214.5,189.55Z" transform="translate(-28.94 -0.23)"/><path d="M145.83,222.11a23.62,23.62,0,0,1,2.64-2.74,22.63,22.63,0,0,1,3-2.27,23.68,23.68,0,0,0-4.83,5.57Z" transform="translate(-28.94 -0.23)"/><path d="M189.35,209a55.59,55.59,0,0,0,7.07-3.94,17.74,17.74,0,0,0,5.67-5.7,17.92,17.92,0,0,1-5.39,6.1,54.66,54.66,0,0,1-6.91,4.41Z" transform="translate(-28.94 -0.23)"/><path class="cls-1" d="M71.56,164.06c-3.41,2.48-4.53,6.73-4.39,10.95s1.64,8.26,3.12,12.22c1.16,3.12,2.62,6.56,5.67,7.89a8.18,8.18,0,0,0,7.52-1,18.56,18.56,0,0,0,5.26-5.81c2.19-3.43,3.84-7,3.14-11.17a12.8,12.8,0,0,0-6.12-9,13,13,0,0,0-13.09.6" transform="translate(-28.94 -0.23)"/><path class="cls-1" d="M176.89,241.25a25.13,25.13,0,0,0-10.81-12.38,23.8,23.8,0,0,0-16.18-2.94c-3.43.68-8.58,2.85-7.82,14.2,0,0,2.13,12.63,5,17.17s6.41,13.09,23.69,15.71" transform="translate(-28.94 -0.23)"/><path class="cls-18" d="M147.64,251.05a8.1,8.1,0,0,1,1.56-3.8,6.29,6.29,0,0,1,6.81-1.57,10.32,10.32,0,0,1,5.35,4.93,31,31,0,0,1,2.48,7l3,11.14c.34,1.27.57,2.89-.49,3.68-.84.63-2,.34-3,0-3.7-1.36-6.4-3.75-9.43-6.26a31.73,31.73,0,0,1-4.37-4.53c-.94-1.19-1.62-1.47-1.77-2.92A25.68,25.68,0,0,1,147.64,251.05Z" transform="translate(-28.94 -0.23)"/><path class="cls-18" d="M159.25,244.27a2.59,2.59,0,0,0,2.11,1.37,1.86,1.86,0,0,0,1.4-1,4,4,0,0,0,.46-1.69,10.18,10.18,0,0,0-1.82-6.77c-1.31-1.86-3.77-2.3-4,.35A11.65,11.65,0,0,0,159.25,244.27Z" transform="translate(-28.94 -0.23)"/><path class="cls-18" d="M148,241a2.57,2.57,0,0,0,1.79,1.08,1.9,1.9,0,0,0,1.65-1.1,4.37,4.37,0,0,0,.41-2,13.38,13.38,0,0,0-.59-4.12c-.67-2.16-3.73-5.52-5.17-2C145,235.46,146.23,239,148,241Z" transform="translate(-28.94 -0.23)"/><path class="cls-18" d="M145.3,245.33a2.51,2.51,0,0,1-.42,1.23,1.2,1.2,0,0,1-1.14.52c-.59-.12-.91-.74-1.12-1.3-.4-1.05-2.15-6.53-.08-6.27S145.5,243.73,145.3,245.33Z" transform="translate(-28.94 -0.23)"/><path class="cls-23" d="M142.08,240.13c2.6,23.42,16.41,29.54,19.33,31,9.1,4.62,19.07-.21,26.16-5.32" transform="translate(-28.94 -0.23)"/><path d="M176.89,241.25a25,25,0,0,0-7.74-10.07,25.33,25.33,0,0,0-11.6-5,21.46,21.46,0,0,0-6.3,0,9.81,9.81,0,0,0-5.56,2.32,9.44,9.44,0,0,0-2.65,5.35,24.07,24.07,0,0,0-.22,6.24l-1.47.1a26.2,26.2,0,0,1,.43-6.6,10.6,10.6,0,0,1,3.17-5.9,10.84,10.84,0,0,1,6.18-2.42,22.38,22.38,0,0,1,6.54.23,25.8,25.8,0,0,1,11.71,5.4A25.25,25.25,0,0,1,176.89,241.25Z" transform="translate(-28.94 -0.23)"/><path d="M72.34,164.39c-2.86,2.09-4.27,5.77-4.42,9.36s.87,7.27,2.11,10.8c.64,1.77,1.25,3.57,2,5.24A10.21,10.21,0,0,0,75.23,194a6.31,6.31,0,0,0,5,.88,9.72,9.72,0,0,0,4.67-2.51,22.18,22.18,0,0,0,3.49-4.3,23.61,23.61,0,0,0,2.57-4.93,12,12,0,0,0,.68-5.41,12.76,12.76,0,0,0-1.79-5.19A11.73,11.73,0,0,0,86,168.61a11.85,11.85,0,0,0-5.25-1.71,12.8,12.8,0,0,0-10.25,3.77,13,13,0,0,1,10.27-4.11,12,12,0,0,1,5.48,1.63,12.47,12.47,0,0,1,4.11,4,13.65,13.65,0,0,1,2,5.43,12.71,12.71,0,0,1-.6,5.77,24.9,24.9,0,0,1-2.56,5.17,22.87,22.87,0,0,1-3.56,4.57,10.92,10.92,0,0,1-5.15,2.9,7.53,7.53,0,0,1-5.92-1,11.44,11.44,0,0,1-3.66-4.68c-.83-1.77-1.45-3.56-2.12-5.34-1.29-3.57-2.44-7.35-2.3-11.33a15.86,15.86,0,0,1,1.32-5.77,11.59,11.59,0,0,1,3.72-4.7Z" transform="translate(-28.94 -0.23)"/></svg>
